<mxfile host="Electron" modified="2025-01-19T15:14:11.975Z" agent="Mozilla/5.0 (Windows NT 10.0; Win64; x64) AppleWebKit/537.36 (KHTML, like Gecko) draw.io/22.1.2 Chrome/114.0.5735.289 Electron/25.9.4 Safari/537.36" etag="I3ZsqZ6s04e2rWEfQvcF" version="22.1.2" type="device">
  <diagram name="Страница 1" id="-PbHmPVPx92qNtvwvaU1">
    <mxGraphModel dx="3500" dy="2070" grid="1" gridSize="10" guides="1" tooltips="1" connect="1" arrows="1" fold="1" page="1" pageScale="1" pageWidth="1600" pageHeight="900" math="0" shadow="0">
      <root>
        <mxCell id="0" />
        <mxCell id="1" parent="0" />
        <mxCell id="qR7dvyqKIZMKu4I9WFlV-28" style="edgeStyle=orthogonalEdgeStyle;rounded=0;orthogonalLoop=1;jettySize=auto;html=1;exitX=1;exitY=0;exitDx=0;exitDy=0;entryX=0;entryY=0.5;entryDx=0;entryDy=0;fillColor=#dae8fc;strokeColor=#6c8ebf;" edge="1" parent="1" source="qR7dvyqKIZMKu4I9WFlV-21" target="qR7dvyqKIZMKu4I9WFlV-3">
          <mxGeometry relative="1" as="geometry" />
        </mxCell>
        <mxCell id="qR7dvyqKIZMKu4I9WFlV-27" style="edgeStyle=orthogonalEdgeStyle;rounded=0;orthogonalLoop=1;jettySize=auto;html=1;exitX=1;exitY=1;exitDx=0;exitDy=0;entryX=0;entryY=0.5;entryDx=0;entryDy=0;fillColor=#dae8fc;strokeColor=#6c8ebf;" edge="1" parent="1" source="qR7dvyqKIZMKu4I9WFlV-21" target="qR7dvyqKIZMKu4I9WFlV-2">
          <mxGeometry relative="1" as="geometry" />
        </mxCell>
        <mxCell id="IAB-obPx6H-1fxKOcOw--5" style="edgeStyle=orthogonalEdgeStyle;rounded=0;orthogonalLoop=1;jettySize=auto;html=1;entryX=0.5;entryY=1;entryDx=0;entryDy=0;fillColor=#dae8fc;strokeColor=#6c8ebf;" parent="1" source="IAB-obPx6H-1fxKOcOw--1" target="IAB-obPx6H-1fxKOcOw--2" edge="1">
          <mxGeometry relative="1" as="geometry">
            <Array as="points">
              <mxPoint x="360" y="850" />
            </Array>
          </mxGeometry>
        </mxCell>
        <mxCell id="IAB-obPx6H-1fxKOcOw--6" style="edgeStyle=orthogonalEdgeStyle;rounded=0;orthogonalLoop=1;jettySize=auto;html=1;entryX=0.5;entryY=1;entryDx=0;entryDy=0;fillColor=#dae8fc;strokeColor=#6c8ebf;" parent="1" source="IAB-obPx6H-1fxKOcOw--1" target="IAB-obPx6H-1fxKOcOw--3" edge="1">
          <mxGeometry relative="1" as="geometry" />
        </mxCell>
        <mxCell id="IAB-obPx6H-1fxKOcOw--7" style="edgeStyle=orthogonalEdgeStyle;rounded=0;orthogonalLoop=1;jettySize=auto;html=1;fillColor=#dae8fc;strokeColor=#6c8ebf;" parent="1" source="IAB-obPx6H-1fxKOcOw--1" target="IAB-obPx6H-1fxKOcOw--4" edge="1">
          <mxGeometry relative="1" as="geometry">
            <Array as="points">
              <mxPoint x="720" y="850" />
            </Array>
          </mxGeometry>
        </mxCell>
        <mxCell id="IAB-obPx6H-1fxKOcOw--16" style="edgeStyle=orthogonalEdgeStyle;rounded=0;orthogonalLoop=1;jettySize=auto;html=1;exitX=0;exitY=0.75;exitDx=0;exitDy=0;entryX=0;entryY=0.75;entryDx=0;entryDy=0;fillColor=#f8cecc;strokeColor=#b85450;" parent="1" source="IAB-obPx6H-1fxKOcOw--1" target="IAB-obPx6H-1fxKOcOw--15" edge="1">
          <mxGeometry relative="1" as="geometry">
            <Array as="points">
              <mxPoint x="240" y="870" />
              <mxPoint x="240" y="510" />
            </Array>
          </mxGeometry>
        </mxCell>
        <mxCell id="IAB-obPx6H-1fxKOcOw--1" value="Входной датасет" style="rounded=0;whiteSpace=wrap;html=1;fillColor=#f8cecc;strokeColor=#b85450;" parent="1" vertex="1">
          <mxGeometry x="480" y="840" width="120" height="40" as="geometry" />
        </mxCell>
        <mxCell id="IAB-obPx6H-1fxKOcOw--24" style="edgeStyle=orthogonalEdgeStyle;rounded=0;orthogonalLoop=1;jettySize=auto;html=1;entryX=0.5;entryY=1;entryDx=0;entryDy=0;" parent="1" source="IAB-obPx6H-1fxKOcOw--15" target="IAB-obPx6H-1fxKOcOw--23" edge="1">
          <mxGeometry relative="1" as="geometry" />
        </mxCell>
        <mxCell id="T4nfycj2DvPbodct1pP5-12" style="edgeStyle=orthogonalEdgeStyle;rounded=0;orthogonalLoop=1;jettySize=auto;html=1;exitX=0;exitY=0.25;exitDx=0;exitDy=0;entryX=0;entryY=0.75;entryDx=0;entryDy=0;fillColor=#f8cecc;strokeColor=#b85450;" parent="1" source="IAB-obPx6H-1fxKOcOw--15" target="T4nfycj2DvPbodct1pP5-10" edge="1">
          <mxGeometry relative="1" as="geometry">
            <Array as="points">
              <mxPoint x="420" y="490" />
              <mxPoint x="420" y="350" />
            </Array>
          </mxGeometry>
        </mxCell>
        <mxCell id="IAB-obPx6H-1fxKOcOw--15" value="Датасет: ориг + прогноз 1 +&lt;br&gt;усреднение" style="rounded=0;whiteSpace=wrap;html=1;fillColor=#f8cecc;strokeColor=#b85450;" parent="1" vertex="1">
          <mxGeometry x="460" y="480" width="160" height="40" as="geometry" />
        </mxCell>
        <mxCell id="IAB-obPx6H-1fxKOcOw--17" style="edgeStyle=orthogonalEdgeStyle;rounded=0;orthogonalLoop=1;jettySize=auto;html=1;exitX=0.5;exitY=0;exitDx=0;exitDy=0;entryX=0.5;entryY=1;entryDx=0;entryDy=0;fillColor=#f8cecc;strokeColor=#b85450;" parent="1" source="IAB-obPx6H-1fxKOcOw--8" target="IAB-obPx6H-1fxKOcOw--15" edge="1">
          <mxGeometry relative="1" as="geometry" />
        </mxCell>
        <mxCell id="IAB-obPx6H-1fxKOcOw--18" style="edgeStyle=orthogonalEdgeStyle;rounded=0;orthogonalLoop=1;jettySize=auto;html=1;exitX=0.5;exitY=0;exitDx=0;exitDy=0;entryX=0.5;entryY=1;entryDx=0;entryDy=0;fillColor=#f8cecc;strokeColor=#b85450;" parent="1" source="IAB-obPx6H-1fxKOcOw--9" target="IAB-obPx6H-1fxKOcOw--15" edge="1">
          <mxGeometry relative="1" as="geometry" />
        </mxCell>
        <mxCell id="IAB-obPx6H-1fxKOcOw--19" style="edgeStyle=orthogonalEdgeStyle;rounded=0;orthogonalLoop=1;jettySize=auto;html=1;exitX=0.25;exitY=0;exitDx=0;exitDy=0;entryX=0.5;entryY=1;entryDx=0;entryDy=0;fillColor=#f8cecc;strokeColor=#b85450;" parent="1" source="IAB-obPx6H-1fxKOcOw--10" target="IAB-obPx6H-1fxKOcOw--15" edge="1">
          <mxGeometry relative="1" as="geometry" />
        </mxCell>
        <mxCell id="IAB-obPx6H-1fxKOcOw--22" value="Финальный прогноз" style="rounded=1;whiteSpace=wrap;html=1;fillColor=#fff2cc;strokeColor=#d6b656;" parent="1" vertex="1">
          <mxGeometry x="480" y="160" width="120" height="40" as="geometry" />
        </mxCell>
        <mxCell id="T4nfycj2DvPbodct1pP5-11" style="edgeStyle=orthogonalEdgeStyle;rounded=0;orthogonalLoop=1;jettySize=auto;html=1;exitX=0.5;exitY=0;exitDx=0;exitDy=0;entryX=0.5;entryY=1;entryDx=0;entryDy=0;fillColor=#f8cecc;strokeColor=#b85450;" parent="1" source="IAB-obPx6H-1fxKOcOw--23" target="T4nfycj2DvPbodct1pP5-10" edge="1">
          <mxGeometry relative="1" as="geometry" />
        </mxCell>
        <mxCell id="IAB-obPx6H-1fxKOcOw--23" value="Смеситель&lt;br&gt;Regressor L2" style="shape=process;whiteSpace=wrap;html=1;backgroundOutline=1;fillColor=#d5e8d4;strokeColor=#82b366;" parent="1" vertex="1">
          <mxGeometry x="460" y="400" width="160" height="40" as="geometry" />
        </mxCell>
        <mxCell id="T4nfycj2DvPbodct1pP5-5" style="edgeStyle=orthogonalEdgeStyle;rounded=0;orthogonalLoop=1;jettySize=auto;html=1;exitX=0.5;exitY=0;exitDx=0;exitDy=0;fillColor=#f8cecc;strokeColor=#b85450;" parent="1" source="T4nfycj2DvPbodct1pP5-1" edge="1">
          <mxGeometry relative="1" as="geometry">
            <mxPoint x="620" y="510" as="targetPoint" />
            <Array as="points">
              <mxPoint x="720" y="510" />
              <mxPoint x="620" y="510" />
            </Array>
          </mxGeometry>
        </mxCell>
        <mxCell id="T4nfycj2DvPbodct1pP5-1" value="Усреднитель" style="shape=process;whiteSpace=wrap;html=1;backgroundOutline=1;fillColor=#dae8fc;strokeColor=#6c8ebf;" parent="1" vertex="1">
          <mxGeometry x="640" y="540" width="160" height="40" as="geometry" />
        </mxCell>
        <mxCell id="T4nfycj2DvPbodct1pP5-2" style="edgeStyle=orthogonalEdgeStyle;rounded=0;orthogonalLoop=1;jettySize=auto;html=1;exitX=0.5;exitY=0;exitDx=0;exitDy=0;entryX=0.5;entryY=1;entryDx=0;entryDy=0;fillColor=#dae8fc;strokeColor=#6c8ebf;" parent="1" source="IAB-obPx6H-1fxKOcOw--10" target="T4nfycj2DvPbodct1pP5-1" edge="1">
          <mxGeometry relative="1" as="geometry" />
        </mxCell>
        <mxCell id="T4nfycj2DvPbodct1pP5-4" style="edgeStyle=orthogonalEdgeStyle;rounded=0;orthogonalLoop=1;jettySize=auto;html=1;exitX=0.75;exitY=0;exitDx=0;exitDy=0;entryX=0.5;entryY=1;entryDx=0;entryDy=0;fillColor=#dae8fc;strokeColor=#6c8ebf;" parent="1" source="IAB-obPx6H-1fxKOcOw--8" target="T4nfycj2DvPbodct1pP5-1" edge="1">
          <mxGeometry relative="1" as="geometry" />
        </mxCell>
        <mxCell id="IAB-obPx6H-1fxKOcOw--2" value="Regressor L1 1" style="shape=process;whiteSpace=wrap;html=1;backgroundOutline=1;fillColor=#dae8fc;strokeColor=#6c8ebf;" parent="1" vertex="1">
          <mxGeometry x="280" y="760" width="160" height="40" as="geometry" />
        </mxCell>
        <mxCell id="IAB-obPx6H-1fxKOcOw--3" value="Regressor L1 2" style="shape=process;whiteSpace=wrap;html=1;backgroundOutline=1;fillColor=#dae8fc;strokeColor=#6c8ebf;" parent="1" vertex="1">
          <mxGeometry x="460" y="760" width="160" height="40" as="geometry" />
        </mxCell>
        <mxCell id="IAB-obPx6H-1fxKOcOw--4" value="Regressor L1 3" style="shape=process;whiteSpace=wrap;html=1;backgroundOutline=1;fillColor=#dae8fc;strokeColor=#6c8ebf;" parent="1" vertex="1">
          <mxGeometry x="640" y="760" width="160" height="40" as="geometry" />
        </mxCell>
        <mxCell id="IAB-obPx6H-1fxKOcOw--8" value="Прогноз 1" style="rounded=1;whiteSpace=wrap;html=1;fillColor=#fff2cc;strokeColor=#d6b656;" parent="1" vertex="1">
          <mxGeometry x="300" y="680" width="120" height="40" as="geometry" />
        </mxCell>
        <mxCell id="IAB-obPx6H-1fxKOcOw--11" style="edgeStyle=orthogonalEdgeStyle;rounded=0;orthogonalLoop=1;jettySize=auto;html=1;entryX=0.5;entryY=1;entryDx=0;entryDy=0;" parent="1" target="IAB-obPx6H-1fxKOcOw--8" edge="1">
          <mxGeometry relative="1" as="geometry">
            <mxPoint x="360" y="760" as="sourcePoint" />
          </mxGeometry>
        </mxCell>
        <mxCell id="T4nfycj2DvPbodct1pP5-7" style="edgeStyle=orthogonalEdgeStyle;rounded=0;orthogonalLoop=1;jettySize=auto;html=1;exitX=0.75;exitY=0;exitDx=0;exitDy=0;entryX=0.5;entryY=1;entryDx=0;entryDy=0;fillColor=#dae8fc;strokeColor=#6c8ebf;" parent="1" source="IAB-obPx6H-1fxKOcOw--9" target="T4nfycj2DvPbodct1pP5-1" edge="1">
          <mxGeometry relative="1" as="geometry" />
        </mxCell>
        <mxCell id="IAB-obPx6H-1fxKOcOw--9" value="Прогноз 2" style="rounded=1;whiteSpace=wrap;html=1;fillColor=#fff2cc;strokeColor=#d6b656;" parent="1" vertex="1">
          <mxGeometry x="480" y="680" width="120" height="40" as="geometry" />
        </mxCell>
        <mxCell id="IAB-obPx6H-1fxKOcOw--12" style="edgeStyle=orthogonalEdgeStyle;rounded=0;orthogonalLoop=1;jettySize=auto;html=1;entryX=0.5;entryY=1;entryDx=0;entryDy=0;" parent="1" source="IAB-obPx6H-1fxKOcOw--3" target="IAB-obPx6H-1fxKOcOw--9" edge="1">
          <mxGeometry relative="1" as="geometry" />
        </mxCell>
        <mxCell id="IAB-obPx6H-1fxKOcOw--10" value="Прогноз 3" style="rounded=1;whiteSpace=wrap;html=1;fillColor=#fff2cc;strokeColor=#d6b656;" parent="1" vertex="1">
          <mxGeometry x="660" y="680" width="120" height="40" as="geometry" />
        </mxCell>
        <mxCell id="IAB-obPx6H-1fxKOcOw--13" style="edgeStyle=orthogonalEdgeStyle;rounded=0;orthogonalLoop=1;jettySize=auto;html=1;entryX=0.5;entryY=1;entryDx=0;entryDy=0;" parent="1" source="IAB-obPx6H-1fxKOcOw--4" target="IAB-obPx6H-1fxKOcOw--10" edge="1">
          <mxGeometry relative="1" as="geometry" />
        </mxCell>
        <mxCell id="T4nfycj2DvPbodct1pP5-8" value="Регрессия 1 уровня&lt;br&gt;&lt;span style=&quot;white-space: pre;&quot;&gt;&#x9;&lt;/span&gt;(бэггинг)" style="strokeWidth=2;html=1;shape=mxgraph.flowchart.annotation_2;align=left;labelPosition=right;pointerEvents=1;flipH=1;fontStyle=1;fontSize=16;" parent="1" vertex="1">
          <mxGeometry x="820" y="530" width="50" height="280" as="geometry" />
        </mxCell>
        <mxCell id="T4nfycj2DvPbodct1pP5-15" style="edgeStyle=orthogonalEdgeStyle;rounded=0;orthogonalLoop=1;jettySize=auto;html=1;entryX=0.5;entryY=1;entryDx=0;entryDy=0;" parent="1" source="T4nfycj2DvPbodct1pP5-10" target="T4nfycj2DvPbodct1pP5-14" edge="1">
          <mxGeometry relative="1" as="geometry" />
        </mxCell>
        <mxCell id="T4nfycj2DvPbodct1pP5-10" value="Датасет: ориг + прогноз 1 +&lt;br&gt;усреднение + прогноз 2" style="rounded=0;whiteSpace=wrap;html=1;fillColor=#f8cecc;strokeColor=#b85450;" parent="1" vertex="1">
          <mxGeometry x="460" y="320" width="160" height="40" as="geometry" />
        </mxCell>
        <mxCell id="T4nfycj2DvPbodct1pP5-13" value="Регрессия 2 уровня&lt;br&gt;&lt;span style=&quot;white-space: pre;&quot;&gt;&#x9;&lt;/span&gt;(стеккинг)" style="strokeWidth=2;html=1;shape=mxgraph.flowchart.annotation_2;align=left;labelPosition=right;pointerEvents=1;flipH=1;fontStyle=1;fontSize=16;" parent="1" vertex="1">
          <mxGeometry x="820" y="380" width="50" height="80" as="geometry" />
        </mxCell>
        <mxCell id="T4nfycj2DvPbodct1pP5-16" style="edgeStyle=orthogonalEdgeStyle;rounded=0;orthogonalLoop=1;jettySize=auto;html=1;exitX=0.5;exitY=0;exitDx=0;exitDy=0;entryX=0.5;entryY=1;entryDx=0;entryDy=0;" parent="1" source="T4nfycj2DvPbodct1pP5-14" target="IAB-obPx6H-1fxKOcOw--22" edge="1">
          <mxGeometry relative="1" as="geometry" />
        </mxCell>
        <mxCell id="T4nfycj2DvPbodct1pP5-14" value="Смеситель&lt;br&gt;Classifire L3" style="shape=process;whiteSpace=wrap;html=1;backgroundOutline=1;fillColor=#ffe6cc;strokeColor=#d79b00;" parent="1" vertex="1">
          <mxGeometry x="460" y="240" width="160" height="40" as="geometry" />
        </mxCell>
        <mxCell id="T4nfycj2DvPbodct1pP5-17" value="Классификация 3 уровня&lt;br&gt;&lt;span style=&quot;white-space: pre;&quot;&gt;&#x9;&lt;/span&gt;(стеккинг)" style="strokeWidth=2;html=1;shape=mxgraph.flowchart.annotation_2;align=left;labelPosition=right;pointerEvents=1;flipH=1;fontStyle=1;fontSize=16;" parent="1" vertex="1">
          <mxGeometry x="820" y="220" width="50" height="80" as="geometry" />
        </mxCell>
        <mxCell id="mc2xTIKdBXK_DJrOslDU-16" style="edgeStyle=orthogonalEdgeStyle;rounded=0;orthogonalLoop=1;jettySize=auto;html=1;exitX=0.5;exitY=0;exitDx=0;exitDy=0;entryX=0.5;entryY=1;entryDx=0;entryDy=0;" parent="1" source="mc2xTIKdBXK_DJrOslDU-1" target="mc2xTIKdBXK_DJrOslDU-6" edge="1">
          <mxGeometry relative="1" as="geometry" />
        </mxCell>
        <mxCell id="mc2xTIKdBXK_DJrOslDU-1" value="Regressor L1 2" style="shape=process;whiteSpace=wrap;html=1;backgroundOutline=1;fillColor=#dae8fc;strokeColor=#6c8ebf;" parent="1" vertex="1">
          <mxGeometry x="1840" y="680" width="160" height="40" as="geometry" />
        </mxCell>
        <mxCell id="mc2xTIKdBXK_DJrOslDU-13" style="edgeStyle=orthogonalEdgeStyle;rounded=0;orthogonalLoop=1;jettySize=auto;html=1;exitX=1;exitY=0.25;exitDx=0;exitDy=0;entryX=0.5;entryY=1;entryDx=0;entryDy=0;fillColor=#dae8fc;strokeColor=#6c8ebf;" parent="1" source="mc2xTIKdBXK_DJrOslDU-3" target="mc2xTIKdBXK_DJrOslDU-1" edge="1">
          <mxGeometry relative="1" as="geometry" />
        </mxCell>
        <mxCell id="mc2xTIKdBXK_DJrOslDU-14" style="edgeStyle=orthogonalEdgeStyle;rounded=0;orthogonalLoop=1;jettySize=auto;html=1;exitX=0;exitY=0.25;exitDx=0;exitDy=0;entryX=0.5;entryY=1;entryDx=0;entryDy=0;fillColor=#dae8fc;strokeColor=#6c8ebf;" parent="1" source="mc2xTIKdBXK_DJrOslDU-3" target="mc2xTIKdBXK_DJrOslDU-4" edge="1">
          <mxGeometry relative="1" as="geometry" />
        </mxCell>
        <mxCell id="mc2xTIKdBXK_DJrOslDU-26" style="edgeStyle=orthogonalEdgeStyle;rounded=0;orthogonalLoop=1;jettySize=auto;html=1;exitX=0;exitY=0.75;exitDx=0;exitDy=0;entryX=0;entryY=0.75;entryDx=0;entryDy=0;fillColor=#f8cecc;strokeColor=#b85450;" parent="1" source="mc2xTIKdBXK_DJrOslDU-3" target="mc2xTIKdBXK_DJrOslDU-8" edge="1">
          <mxGeometry relative="1" as="geometry">
            <Array as="points">
              <mxPoint x="1640" y="790" />
              <mxPoint x="1640" y="510" />
            </Array>
          </mxGeometry>
        </mxCell>
        <mxCell id="mc2xTIKdBXK_DJrOslDU-3" value="Входной датасет" style="rounded=0;whiteSpace=wrap;html=1;fillColor=#f8cecc;strokeColor=#b85450;" parent="1" vertex="1">
          <mxGeometry x="1770" y="760" width="120" height="40" as="geometry" />
        </mxCell>
        <mxCell id="mc2xTIKdBXK_DJrOslDU-15" style="edgeStyle=orthogonalEdgeStyle;rounded=0;orthogonalLoop=1;jettySize=auto;html=1;exitX=0.5;exitY=0;exitDx=0;exitDy=0;entryX=0.5;entryY=1;entryDx=0;entryDy=0;" parent="1" source="mc2xTIKdBXK_DJrOslDU-4" target="mc2xTIKdBXK_DJrOslDU-5" edge="1">
          <mxGeometry relative="1" as="geometry" />
        </mxCell>
        <mxCell id="mc2xTIKdBXK_DJrOslDU-4" value="Regressor L1 1" style="shape=process;whiteSpace=wrap;html=1;backgroundOutline=1;fillColor=#dae8fc;strokeColor=#6c8ebf;" parent="1" vertex="1">
          <mxGeometry x="1660" y="680" width="160" height="40" as="geometry" />
        </mxCell>
        <mxCell id="mc2xTIKdBXK_DJrOslDU-20" style="edgeStyle=orthogonalEdgeStyle;rounded=0;orthogonalLoop=1;jettySize=auto;html=1;exitX=0.5;exitY=0;exitDx=0;exitDy=0;entryX=0.5;entryY=1;entryDx=0;entryDy=0;fillColor=#f8cecc;strokeColor=#b85450;" parent="1" source="mc2xTIKdBXK_DJrOslDU-5" target="mc2xTIKdBXK_DJrOslDU-8" edge="1">
          <mxGeometry relative="1" as="geometry">
            <Array as="points">
              <mxPoint x="1740" y="560" />
              <mxPoint x="1830" y="560" />
            </Array>
          </mxGeometry>
        </mxCell>
        <mxCell id="mc2xTIKdBXK_DJrOslDU-5" value="Прогноз 1" style="rounded=1;whiteSpace=wrap;html=1;fillColor=#fff2cc;strokeColor=#d6b656;" parent="1" vertex="1">
          <mxGeometry x="1680" y="600" width="120" height="40" as="geometry" />
        </mxCell>
        <mxCell id="mc2xTIKdBXK_DJrOslDU-19" style="edgeStyle=orthogonalEdgeStyle;rounded=0;orthogonalLoop=1;jettySize=auto;html=1;exitX=0.5;exitY=0;exitDx=0;exitDy=0;entryX=0.5;entryY=1;entryDx=0;entryDy=0;fillColor=#f8cecc;strokeColor=#b85450;" parent="1" source="mc2xTIKdBXK_DJrOslDU-6" target="mc2xTIKdBXK_DJrOslDU-8" edge="1">
          <mxGeometry relative="1" as="geometry">
            <Array as="points">
              <mxPoint x="1920" y="560" />
              <mxPoint x="1830" y="560" />
            </Array>
          </mxGeometry>
        </mxCell>
        <mxCell id="mc2xTIKdBXK_DJrOslDU-6" value="Прогноз 2" style="rounded=1;whiteSpace=wrap;html=1;fillColor=#fff2cc;strokeColor=#d6b656;" parent="1" vertex="1">
          <mxGeometry x="1860" y="600" width="120" height="40" as="geometry" />
        </mxCell>
        <mxCell id="mc2xTIKdBXK_DJrOslDU-22" style="edgeStyle=orthogonalEdgeStyle;rounded=0;orthogonalLoop=1;jettySize=auto;html=1;exitX=1;exitY=0.25;exitDx=0;exitDy=0;entryX=0.5;entryY=1;entryDx=0;entryDy=0;fillColor=#d5e8d4;strokeColor=#82b366;" parent="1" source="mc2xTIKdBXK_DJrOslDU-8" target="mc2xTIKdBXK_DJrOslDU-11" edge="1">
          <mxGeometry relative="1" as="geometry" />
        </mxCell>
        <mxCell id="mc2xTIKdBXK_DJrOslDU-23" style="edgeStyle=orthogonalEdgeStyle;rounded=0;orthogonalLoop=1;jettySize=auto;html=1;exitX=0;exitY=0.25;exitDx=0;exitDy=0;entryX=0.5;entryY=1;entryDx=0;entryDy=0;fillColor=#d5e8d4;strokeColor=#82b366;" parent="1" source="mc2xTIKdBXK_DJrOslDU-8" target="mc2xTIKdBXK_DJrOslDU-10" edge="1">
          <mxGeometry relative="1" as="geometry" />
        </mxCell>
        <mxCell id="mc2xTIKdBXK_DJrOslDU-8" value="Датасет: ориг + &lt;br&gt;прогноз 1 + прогноз 2" style="rounded=0;whiteSpace=wrap;html=1;fillColor=#f8cecc;strokeColor=#b85450;" parent="1" vertex="1">
          <mxGeometry x="1750" y="480" width="160" height="40" as="geometry" />
        </mxCell>
        <mxCell id="mc2xTIKdBXK_DJrOslDU-25" style="edgeStyle=orthogonalEdgeStyle;rounded=0;orthogonalLoop=1;jettySize=auto;html=1;exitX=0.5;exitY=0;exitDx=0;exitDy=0;entryX=0.25;entryY=1;entryDx=0;entryDy=0;" parent="1" source="mc2xTIKdBXK_DJrOslDU-10" target="mc2xTIKdBXK_DJrOslDU-12" edge="1">
          <mxGeometry relative="1" as="geometry" />
        </mxCell>
        <mxCell id="mc2xTIKdBXK_DJrOslDU-10" value="UP Classifire L2" style="shape=process;whiteSpace=wrap;html=1;backgroundOutline=1;fillColor=#d5e8d4;strokeColor=#82b366;" parent="1" vertex="1">
          <mxGeometry x="1640" y="400" width="160" height="40" as="geometry" />
        </mxCell>
        <mxCell id="mc2xTIKdBXK_DJrOslDU-24" style="edgeStyle=orthogonalEdgeStyle;rounded=0;orthogonalLoop=1;jettySize=auto;html=1;exitX=0.5;exitY=0;exitDx=0;exitDy=0;entryX=0.75;entryY=1;entryDx=0;entryDy=0;" parent="1" source="mc2xTIKdBXK_DJrOslDU-11" target="mc2xTIKdBXK_DJrOslDU-12" edge="1">
          <mxGeometry relative="1" as="geometry" />
        </mxCell>
        <mxCell id="mc2xTIKdBXK_DJrOslDU-11" value="DOWN Classifire L2" style="shape=process;whiteSpace=wrap;html=1;backgroundOutline=1;fillColor=#d5e8d4;strokeColor=#82b366;" parent="1" vertex="1">
          <mxGeometry x="1860" y="400" width="160" height="40" as="geometry" />
        </mxCell>
        <mxCell id="mc2xTIKdBXK_DJrOslDU-12" value="(scorUP, scoreDOWN)&lt;br&gt;(0-1, 0-1)" style="rounded=1;whiteSpace=wrap;html=1;fillColor=#fff2cc;strokeColor=#d6b656;" parent="1" vertex="1">
          <mxGeometry x="1710" y="250" width="240" height="70" as="geometry" />
        </mxCell>
        <mxCell id="ITJyrdx6Sr3zyiOmxqnb-1" style="edgeStyle=orthogonalEdgeStyle;rounded=0;orthogonalLoop=1;jettySize=auto;html=1;exitX=0.5;exitY=0;exitDx=0;exitDy=0;entryX=0.5;entryY=1;entryDx=0;entryDy=0;" parent="1" source="ITJyrdx6Sr3zyiOmxqnb-2" target="ITJyrdx6Sr3zyiOmxqnb-14" edge="1">
          <mxGeometry relative="1" as="geometry" />
        </mxCell>
        <mxCell id="ITJyrdx6Sr3zyiOmxqnb-2" value="Regressor L1 2" style="shape=process;whiteSpace=wrap;html=1;backgroundOutline=1;fillColor=#dae8fc;strokeColor=#6c8ebf;" parent="1" vertex="1">
          <mxGeometry x="1320" y="755" width="160" height="40" as="geometry" />
        </mxCell>
        <mxCell id="ITJyrdx6Sr3zyiOmxqnb-3" style="edgeStyle=orthogonalEdgeStyle;rounded=0;orthogonalLoop=1;jettySize=auto;html=1;exitX=1;exitY=0.25;exitDx=0;exitDy=0;entryX=0.5;entryY=1;entryDx=0;entryDy=0;fillColor=#dae8fc;strokeColor=#6c8ebf;" parent="1" source="ITJyrdx6Sr3zyiOmxqnb-6" target="ITJyrdx6Sr3zyiOmxqnb-2" edge="1">
          <mxGeometry relative="1" as="geometry" />
        </mxCell>
        <mxCell id="ITJyrdx6Sr3zyiOmxqnb-4" style="edgeStyle=orthogonalEdgeStyle;rounded=0;orthogonalLoop=1;jettySize=auto;html=1;exitX=0;exitY=0.25;exitDx=0;exitDy=0;entryX=0.5;entryY=1;entryDx=0;entryDy=0;fillColor=#dae8fc;strokeColor=#6c8ebf;" parent="1" source="ITJyrdx6Sr3zyiOmxqnb-6" target="ITJyrdx6Sr3zyiOmxqnb-8" edge="1">
          <mxGeometry relative="1" as="geometry" />
        </mxCell>
        <mxCell id="ITJyrdx6Sr3zyiOmxqnb-5" style="edgeStyle=orthogonalEdgeStyle;rounded=0;orthogonalLoop=1;jettySize=auto;html=1;exitX=0;exitY=0.75;exitDx=0;exitDy=0;entryX=0;entryY=0.75;entryDx=0;entryDy=0;fillColor=#f8cecc;strokeColor=#b85450;" parent="1" source="ITJyrdx6Sr3zyiOmxqnb-6" target="ITJyrdx6Sr3zyiOmxqnb-19" edge="1">
          <mxGeometry relative="1" as="geometry">
            <Array as="points">
              <mxPoint x="1120" y="865" />
              <mxPoint x="1120" y="505" />
            </Array>
          </mxGeometry>
        </mxCell>
        <mxCell id="ITJyrdx6Sr3zyiOmxqnb-6" value="Входной датасет" style="rounded=0;whiteSpace=wrap;html=1;fillColor=#f8cecc;strokeColor=#b85450;" parent="1" vertex="1">
          <mxGeometry x="1250" y="835" width="120" height="40" as="geometry" />
        </mxCell>
        <mxCell id="ITJyrdx6Sr3zyiOmxqnb-7" style="edgeStyle=orthogonalEdgeStyle;rounded=0;orthogonalLoop=1;jettySize=auto;html=1;exitX=0.5;exitY=0;exitDx=0;exitDy=0;entryX=0.5;entryY=1;entryDx=0;entryDy=0;" parent="1" source="ITJyrdx6Sr3zyiOmxqnb-8" target="ITJyrdx6Sr3zyiOmxqnb-11" edge="1">
          <mxGeometry relative="1" as="geometry" />
        </mxCell>
        <mxCell id="ITJyrdx6Sr3zyiOmxqnb-8" value="Regressor L1 1" style="shape=process;whiteSpace=wrap;html=1;backgroundOutline=1;fillColor=#dae8fc;strokeColor=#6c8ebf;" parent="1" vertex="1">
          <mxGeometry x="1140" y="755" width="160" height="40" as="geometry" />
        </mxCell>
        <mxCell id="ITJyrdx6Sr3zyiOmxqnb-9" style="edgeStyle=orthogonalEdgeStyle;rounded=0;orthogonalLoop=1;jettySize=auto;html=1;exitX=0.75;exitY=0;exitDx=0;exitDy=0;entryX=0.5;entryY=1;entryDx=0;entryDy=0;fillColor=#dae8fc;strokeColor=#6c8ebf;" parent="1" source="ITJyrdx6Sr3zyiOmxqnb-11" target="ITJyrdx6Sr3zyiOmxqnb-16" edge="1">
          <mxGeometry relative="1" as="geometry">
            <mxPoint x="1400" y="635" as="targetPoint" />
          </mxGeometry>
        </mxCell>
        <mxCell id="ITJyrdx6Sr3zyiOmxqnb-10" style="edgeStyle=orthogonalEdgeStyle;rounded=0;orthogonalLoop=1;jettySize=auto;html=1;exitX=0.5;exitY=0;exitDx=0;exitDy=0;entryX=0.5;entryY=1;entryDx=0;entryDy=0;fillColor=#f8cecc;strokeColor=#b85450;" parent="1" source="ITJyrdx6Sr3zyiOmxqnb-11" target="ITJyrdx6Sr3zyiOmxqnb-19" edge="1">
          <mxGeometry relative="1" as="geometry">
            <Array as="points">
              <mxPoint x="1220" y="655" />
              <mxPoint x="1310" y="655" />
            </Array>
          </mxGeometry>
        </mxCell>
        <mxCell id="ITJyrdx6Sr3zyiOmxqnb-11" value="Прогноз 1" style="rounded=1;whiteSpace=wrap;html=1;fillColor=#fff2cc;strokeColor=#d6b656;" parent="1" vertex="1">
          <mxGeometry x="1160" y="675" width="120" height="40" as="geometry" />
        </mxCell>
        <mxCell id="ITJyrdx6Sr3zyiOmxqnb-12" style="edgeStyle=orthogonalEdgeStyle;rounded=0;orthogonalLoop=1;jettySize=auto;html=1;exitX=0.75;exitY=0;exitDx=0;exitDy=0;entryX=0.5;entryY=1;entryDx=0;entryDy=0;fillColor=#dae8fc;strokeColor=#6c8ebf;" parent="1" source="ITJyrdx6Sr3zyiOmxqnb-14" target="ITJyrdx6Sr3zyiOmxqnb-16" edge="1">
          <mxGeometry relative="1" as="geometry" />
        </mxCell>
        <mxCell id="ITJyrdx6Sr3zyiOmxqnb-13" style="edgeStyle=orthogonalEdgeStyle;rounded=0;orthogonalLoop=1;jettySize=auto;html=1;exitX=0.25;exitY=0;exitDx=0;exitDy=0;entryX=0.5;entryY=1;entryDx=0;entryDy=0;fillColor=#f8cecc;strokeColor=#b85450;" parent="1" source="ITJyrdx6Sr3zyiOmxqnb-14" target="ITJyrdx6Sr3zyiOmxqnb-19" edge="1">
          <mxGeometry relative="1" as="geometry">
            <Array as="points">
              <mxPoint x="1370" y="655" />
              <mxPoint x="1310" y="655" />
            </Array>
          </mxGeometry>
        </mxCell>
        <mxCell id="ITJyrdx6Sr3zyiOmxqnb-14" value="Прогноз 2" style="rounded=1;whiteSpace=wrap;html=1;fillColor=#fff2cc;strokeColor=#d6b656;" parent="1" vertex="1">
          <mxGeometry x="1340" y="675" width="120" height="40" as="geometry" />
        </mxCell>
        <mxCell id="ITJyrdx6Sr3zyiOmxqnb-15" style="edgeStyle=orthogonalEdgeStyle;rounded=0;orthogonalLoop=1;jettySize=auto;html=1;exitX=0.5;exitY=0;exitDx=0;exitDy=0;entryX=1;entryY=0.75;entryDx=0;entryDy=0;fillColor=#f8cecc;strokeColor=#b85450;" parent="1" source="ITJyrdx6Sr3zyiOmxqnb-16" target="ITJyrdx6Sr3zyiOmxqnb-19" edge="1">
          <mxGeometry relative="1" as="geometry" />
        </mxCell>
        <mxCell id="ITJyrdx6Sr3zyiOmxqnb-16" value="Усреднитель" style="shape=process;whiteSpace=wrap;html=1;backgroundOutline=1;fillColor=#dae8fc;strokeColor=#6c8ebf;" parent="1" vertex="1">
          <mxGeometry x="1350" y="575" width="160" height="40" as="geometry" />
        </mxCell>
        <mxCell id="ITJyrdx6Sr3zyiOmxqnb-17" style="edgeStyle=orthogonalEdgeStyle;rounded=0;orthogonalLoop=1;jettySize=auto;html=1;exitX=1;exitY=0.25;exitDx=0;exitDy=0;entryX=0.5;entryY=1;entryDx=0;entryDy=0;fillColor=#d5e8d4;strokeColor=#82b366;" parent="1" source="ITJyrdx6Sr3zyiOmxqnb-19" target="ITJyrdx6Sr3zyiOmxqnb-23" edge="1">
          <mxGeometry relative="1" as="geometry" />
        </mxCell>
        <mxCell id="ITJyrdx6Sr3zyiOmxqnb-18" style="edgeStyle=orthogonalEdgeStyle;rounded=0;orthogonalLoop=1;jettySize=auto;html=1;exitX=0;exitY=0.25;exitDx=0;exitDy=0;entryX=0.5;entryY=1;entryDx=0;entryDy=0;fillColor=#d5e8d4;strokeColor=#82b366;" parent="1" source="ITJyrdx6Sr3zyiOmxqnb-19" target="ITJyrdx6Sr3zyiOmxqnb-21" edge="1">
          <mxGeometry relative="1" as="geometry" />
        </mxCell>
        <mxCell id="ITJyrdx6Sr3zyiOmxqnb-19" value="Датасет: ориг + прогноз 1 +&lt;br&gt;прогноз 2 + усреднение" style="rounded=0;whiteSpace=wrap;html=1;fillColor=#f8cecc;strokeColor=#b85450;" parent="1" vertex="1">
          <mxGeometry x="1230" y="475" width="160" height="40" as="geometry" />
        </mxCell>
        <mxCell id="ITJyrdx6Sr3zyiOmxqnb-20" style="edgeStyle=orthogonalEdgeStyle;rounded=0;orthogonalLoop=1;jettySize=auto;html=1;exitX=0.5;exitY=0;exitDx=0;exitDy=0;entryX=0.25;entryY=1;entryDx=0;entryDy=0;" parent="1" source="ITJyrdx6Sr3zyiOmxqnb-21" target="ITJyrdx6Sr3zyiOmxqnb-24" edge="1">
          <mxGeometry relative="1" as="geometry" />
        </mxCell>
        <mxCell id="ITJyrdx6Sr3zyiOmxqnb-21" value="UP Classifire L2" style="shape=process;whiteSpace=wrap;html=1;backgroundOutline=1;fillColor=#d5e8d4;strokeColor=#82b366;" parent="1" vertex="1">
          <mxGeometry x="1120" y="395" width="160" height="40" as="geometry" />
        </mxCell>
        <mxCell id="ITJyrdx6Sr3zyiOmxqnb-22" style="edgeStyle=orthogonalEdgeStyle;rounded=0;orthogonalLoop=1;jettySize=auto;html=1;exitX=0.5;exitY=0;exitDx=0;exitDy=0;entryX=0.75;entryY=1;entryDx=0;entryDy=0;" parent="1" source="ITJyrdx6Sr3zyiOmxqnb-23" target="ITJyrdx6Sr3zyiOmxqnb-24" edge="1">
          <mxGeometry relative="1" as="geometry" />
        </mxCell>
        <mxCell id="ITJyrdx6Sr3zyiOmxqnb-23" value="DOWN Classifire L2" style="shape=process;whiteSpace=wrap;html=1;backgroundOutline=1;fillColor=#d5e8d4;strokeColor=#82b366;" parent="1" vertex="1">
          <mxGeometry x="1340" y="395" width="160" height="40" as="geometry" />
        </mxCell>
        <mxCell id="ITJyrdx6Sr3zyiOmxqnb-24" value="(scorUP, scoreDOWN)&lt;br&gt;(0-1, 0-1)" style="rounded=1;whiteSpace=wrap;html=1;fillColor=#fff2cc;strokeColor=#d6b656;" parent="1" vertex="1">
          <mxGeometry x="1190" y="245" width="240" height="70" as="geometry" />
        </mxCell>
        <mxCell id="qR7dvyqKIZMKu4I9WFlV-20" style="edgeStyle=orthogonalEdgeStyle;rounded=0;orthogonalLoop=1;jettySize=auto;html=1;exitX=0.5;exitY=0;exitDx=0;exitDy=0;entryX=0.25;entryY=0;entryDx=0;entryDy=0;fillColor=#f8cecc;strokeColor=#b85450;" edge="1" parent="1" source="qR7dvyqKIZMKu4I9WFlV-21" target="qR7dvyqKIZMKu4I9WFlV-10">
          <mxGeometry relative="1" as="geometry">
            <Array as="points">
              <mxPoint x="2310" y="400" />
              <mxPoint x="2760" y="400" />
            </Array>
          </mxGeometry>
        </mxCell>
        <mxCell id="qR7dvyqKIZMKu4I9WFlV-22" style="edgeStyle=orthogonalEdgeStyle;rounded=0;orthogonalLoop=1;jettySize=auto;html=1;exitX=1;exitY=0.5;exitDx=0;exitDy=0;entryX=0;entryY=0.5;entryDx=0;entryDy=0;" edge="1" parent="1" source="qR7dvyqKIZMKu4I9WFlV-1" target="qR7dvyqKIZMKu4I9WFlV-21">
          <mxGeometry relative="1" as="geometry" />
        </mxCell>
        <mxCell id="qR7dvyqKIZMKu4I9WFlV-1" value="Входной датасет" style="rounded=0;whiteSpace=wrap;html=1;fillColor=#f8cecc;strokeColor=#b85450;" vertex="1" parent="1">
          <mxGeometry x="2080" y="480" width="120" height="40" as="geometry" />
        </mxCell>
        <mxCell id="qR7dvyqKIZMKu4I9WFlV-9" style="edgeStyle=orthogonalEdgeStyle;rounded=0;orthogonalLoop=1;jettySize=auto;html=1;exitX=1;exitY=0.5;exitDx=0;exitDy=0;entryX=0;entryY=0.5;entryDx=0;entryDy=0;" edge="1" parent="1" source="qR7dvyqKIZMKu4I9WFlV-2" target="qR7dvyqKIZMKu4I9WFlV-7">
          <mxGeometry relative="1" as="geometry" />
        </mxCell>
        <mxCell id="qR7dvyqKIZMKu4I9WFlV-2" value="Regressor L1 2" style="shape=process;whiteSpace=wrap;html=1;backgroundOutline=1;fillColor=#dae8fc;strokeColor=#6c8ebf;" vertex="1" parent="1">
          <mxGeometry x="2400" y="520" width="120" height="40" as="geometry" />
        </mxCell>
        <mxCell id="qR7dvyqKIZMKu4I9WFlV-8" style="edgeStyle=orthogonalEdgeStyle;rounded=0;orthogonalLoop=1;jettySize=auto;html=1;exitX=1;exitY=0.5;exitDx=0;exitDy=0;entryX=0;entryY=0.5;entryDx=0;entryDy=0;" edge="1" parent="1" source="qR7dvyqKIZMKu4I9WFlV-3" target="qR7dvyqKIZMKu4I9WFlV-6">
          <mxGeometry relative="1" as="geometry" />
        </mxCell>
        <mxCell id="qR7dvyqKIZMKu4I9WFlV-3" value="Regressor L1 1" style="shape=process;whiteSpace=wrap;html=1;backgroundOutline=1;fillColor=#dae8fc;strokeColor=#6c8ebf;" vertex="1" parent="1">
          <mxGeometry x="2400" y="440" width="120" height="40" as="geometry" />
        </mxCell>
        <mxCell id="qR7dvyqKIZMKu4I9WFlV-11" style="edgeStyle=orthogonalEdgeStyle;rounded=0;orthogonalLoop=1;jettySize=auto;html=1;exitX=1;exitY=0.5;exitDx=0;exitDy=0;entryX=0;entryY=0.5;entryDx=0;entryDy=0;fillColor=#f8cecc;strokeColor=#b85450;" edge="1" parent="1" source="qR7dvyqKIZMKu4I9WFlV-6" target="qR7dvyqKIZMKu4I9WFlV-10">
          <mxGeometry relative="1" as="geometry" />
        </mxCell>
        <mxCell id="qR7dvyqKIZMKu4I9WFlV-6" value="Прогноз 1" style="rounded=1;whiteSpace=wrap;html=1;fillColor=#fff2cc;strokeColor=#d6b656;" vertex="1" parent="1">
          <mxGeometry x="2560" y="440" width="120" height="40" as="geometry" />
        </mxCell>
        <mxCell id="qR7dvyqKIZMKu4I9WFlV-12" style="edgeStyle=orthogonalEdgeStyle;rounded=0;orthogonalLoop=1;jettySize=auto;html=1;exitX=1;exitY=0.5;exitDx=0;exitDy=0;entryX=0;entryY=0.5;entryDx=0;entryDy=0;fillColor=#f8cecc;strokeColor=#b85450;" edge="1" parent="1" source="qR7dvyqKIZMKu4I9WFlV-7" target="qR7dvyqKIZMKu4I9WFlV-10">
          <mxGeometry relative="1" as="geometry">
            <mxPoint x="2730" y="520" as="targetPoint" />
          </mxGeometry>
        </mxCell>
        <mxCell id="qR7dvyqKIZMKu4I9WFlV-7" value="Прогноз 2" style="rounded=1;whiteSpace=wrap;html=1;fillColor=#fff2cc;strokeColor=#d6b656;" vertex="1" parent="1">
          <mxGeometry x="2560" y="520" width="120" height="40" as="geometry" />
        </mxCell>
        <mxCell id="qR7dvyqKIZMKu4I9WFlV-15" style="edgeStyle=orthogonalEdgeStyle;rounded=0;orthogonalLoop=1;jettySize=auto;html=1;exitX=0.75;exitY=0;exitDx=0;exitDy=0;entryX=0;entryY=0.5;entryDx=0;entryDy=0;fillColor=#d5e8d4;strokeColor=#82b366;" edge="1" parent="1" source="qR7dvyqKIZMKu4I9WFlV-10" target="qR7dvyqKIZMKu4I9WFlV-13">
          <mxGeometry relative="1" as="geometry" />
        </mxCell>
        <mxCell id="qR7dvyqKIZMKu4I9WFlV-16" style="edgeStyle=orthogonalEdgeStyle;rounded=0;orthogonalLoop=1;jettySize=auto;html=1;exitX=0.75;exitY=1;exitDx=0;exitDy=0;entryX=0;entryY=0.5;entryDx=0;entryDy=0;fillColor=#d5e8d4;strokeColor=#82b366;" edge="1" parent="1" source="qR7dvyqKIZMKu4I9WFlV-10" target="qR7dvyqKIZMKu4I9WFlV-14">
          <mxGeometry relative="1" as="geometry" />
        </mxCell>
        <mxCell id="qR7dvyqKIZMKu4I9WFlV-10" value="Внутренний датасет: &lt;br&gt;оригинал + прогнозы" style="rounded=0;whiteSpace=wrap;html=1;fillColor=#f8cecc;strokeColor=#b85450;" vertex="1" parent="1">
          <mxGeometry x="2720" y="480" width="160" height="40" as="geometry" />
        </mxCell>
        <mxCell id="qR7dvyqKIZMKu4I9WFlV-18" style="edgeStyle=orthogonalEdgeStyle;rounded=0;orthogonalLoop=1;jettySize=auto;html=1;exitX=1;exitY=0.5;exitDx=0;exitDy=0;entryX=0;entryY=0.25;entryDx=0;entryDy=0;" edge="1" parent="1" source="qR7dvyqKIZMKu4I9WFlV-13" target="qR7dvyqKIZMKu4I9WFlV-17">
          <mxGeometry relative="1" as="geometry" />
        </mxCell>
        <mxCell id="qR7dvyqKIZMKu4I9WFlV-13" value="UP Classifire L2" style="shape=process;whiteSpace=wrap;html=1;backgroundOutline=1;fillColor=#d5e8d4;strokeColor=#82b366;" vertex="1" parent="1">
          <mxGeometry x="2920" y="440" width="140" height="40" as="geometry" />
        </mxCell>
        <mxCell id="qR7dvyqKIZMKu4I9WFlV-19" style="edgeStyle=orthogonalEdgeStyle;rounded=0;orthogonalLoop=1;jettySize=auto;html=1;exitX=1;exitY=0.5;exitDx=0;exitDy=0;entryX=0;entryY=0.75;entryDx=0;entryDy=0;" edge="1" parent="1" source="qR7dvyqKIZMKu4I9WFlV-14" target="qR7dvyqKIZMKu4I9WFlV-17">
          <mxGeometry relative="1" as="geometry" />
        </mxCell>
        <mxCell id="qR7dvyqKIZMKu4I9WFlV-14" value="DOWN Classifire L2" style="shape=process;whiteSpace=wrap;html=1;backgroundOutline=1;fillColor=#d5e8d4;strokeColor=#82b366;" vertex="1" parent="1">
          <mxGeometry x="2920" y="520" width="140" height="40" as="geometry" />
        </mxCell>
        <mxCell id="qR7dvyqKIZMKu4I9WFlV-40" style="edgeStyle=orthogonalEdgeStyle;rounded=0;orthogonalLoop=1;jettySize=auto;html=1;exitX=1;exitY=0.5;exitDx=0;exitDy=0;entryX=0;entryY=0.5;entryDx=0;entryDy=0;" edge="1" parent="1" source="qR7dvyqKIZMKu4I9WFlV-17" target="qR7dvyqKIZMKu4I9WFlV-39">
          <mxGeometry relative="1" as="geometry" />
        </mxCell>
        <mxCell id="qR7dvyqKIZMKu4I9WFlV-17" value="(scorUP, scoreDOWN)&lt;br&gt;(0-1, 0-1)" style="rounded=1;whiteSpace=wrap;html=1;fillColor=#fff2cc;strokeColor=#d6b656;" vertex="1" parent="1">
          <mxGeometry x="3100" y="465" width="180" height="70" as="geometry" />
        </mxCell>
        <mxCell id="qR7dvyqKIZMKu4I9WFlV-21" value="Препроцессинг" style="rhombus;whiteSpace=wrap;html=1;fillColor=#f5f5f5;fontColor=#333333;strokeColor=#666666;" vertex="1" parent="1">
          <mxGeometry x="2230" y="420" width="160" height="160" as="geometry" />
        </mxCell>
        <mxCell id="qR7dvyqKIZMKu4I9WFlV-29" value="" style="endArrow=classic;html=1;rounded=0;targetPerimeterSpacing=0;endSize=8;strokeWidth=2;" edge="1" parent="1">
          <mxGeometry width="50" height="50" relative="1" as="geometry">
            <mxPoint x="2080" y="660" as="sourcePoint" />
            <mxPoint x="3480" y="660" as="targetPoint" />
          </mxGeometry>
        </mxCell>
        <mxCell id="qR7dvyqKIZMKu4I9WFlV-30" value="" style="endArrow=none;html=1;rounded=0;strokeWidth=2;" edge="1" parent="1">
          <mxGeometry width="50" height="50" relative="1" as="geometry">
            <mxPoint x="2220" y="700" as="sourcePoint" />
            <mxPoint x="2220" y="620" as="targetPoint" />
          </mxGeometry>
        </mxCell>
        <mxCell id="qR7dvyqKIZMKu4I9WFlV-31" value="Входные данные" style="text;html=1;strokeColor=none;fillColor=none;align=center;verticalAlign=middle;whiteSpace=wrap;rounded=0;fontStyle=1;fontSize=14;" vertex="1" parent="1">
          <mxGeometry x="2080" y="670" width="130" height="30" as="geometry" />
        </mxCell>
        <mxCell id="qR7dvyqKIZMKu4I9WFlV-32" value="" style="endArrow=none;html=1;rounded=0;strokeWidth=2;" edge="1" parent="1">
          <mxGeometry width="50" height="50" relative="1" as="geometry">
            <mxPoint x="2540" y="700" as="sourcePoint" />
            <mxPoint x="2540" y="620" as="targetPoint" />
          </mxGeometry>
        </mxCell>
        <mxCell id="qR7dvyqKIZMKu4I9WFlV-33" value="" style="endArrow=none;html=1;rounded=0;strokeWidth=2;" edge="1" parent="1">
          <mxGeometry width="50" height="50" relative="1" as="geometry">
            <mxPoint x="2900" y="700" as="sourcePoint" />
            <mxPoint x="2900" y="620" as="targetPoint" />
          </mxGeometry>
        </mxCell>
        <mxCell id="qR7dvyqKIZMKu4I9WFlV-34" value="" style="endArrow=none;html=1;rounded=0;strokeWidth=2;" edge="1" parent="1">
          <mxGeometry width="50" height="50" relative="1" as="geometry">
            <mxPoint x="3080" y="700" as="sourcePoint" />
            <mxPoint x="3080" y="620" as="targetPoint" />
          </mxGeometry>
        </mxCell>
        <mxCell id="qR7dvyqKIZMKu4I9WFlV-35" value="Первый уровень" style="text;html=1;strokeColor=none;fillColor=none;align=center;verticalAlign=middle;whiteSpace=wrap;rounded=0;fontStyle=1;fontSize=14;" vertex="1" parent="1">
          <mxGeometry x="2310" y="670" width="130" height="30" as="geometry" />
        </mxCell>
        <mxCell id="qR7dvyqKIZMKu4I9WFlV-36" value="Внутренние данные" style="text;html=1;strokeColor=none;fillColor=none;align=center;verticalAlign=middle;whiteSpace=wrap;rounded=0;fontStyle=1;fontSize=14;" vertex="1" parent="1">
          <mxGeometry x="2580" y="670" width="290" height="30" as="geometry" />
        </mxCell>
        <mxCell id="qR7dvyqKIZMKu4I9WFlV-37" value="Второй уровень" style="text;html=1;strokeColor=none;fillColor=none;align=center;verticalAlign=middle;whiteSpace=wrap;rounded=0;fontStyle=1;fontSize=14;" vertex="1" parent="1">
          <mxGeometry x="2925" y="670" width="130" height="30" as="geometry" />
        </mxCell>
        <mxCell id="qR7dvyqKIZMKu4I9WFlV-38" value="Выходные данные" style="text;html=1;strokeColor=none;fillColor=none;align=center;verticalAlign=middle;whiteSpace=wrap;rounded=0;fontStyle=1;fontSize=14;" vertex="1" parent="1">
          <mxGeometry x="3180" y="670" width="210" height="30" as="geometry" />
        </mxCell>
        <mxCell id="qR7dvyqKIZMKu4I9WFlV-39" value="Постпроцессинг&lt;br&gt;и&lt;br&gt;Визуализация" style="rhombus;whiteSpace=wrap;html=1;fillColor=#f5f5f5;fontColor=#333333;strokeColor=#666666;" vertex="1" parent="1">
          <mxGeometry x="3320" y="420" width="160" height="160" as="geometry" />
        </mxCell>
        <mxCell id="qR7dvyqKIZMKu4I9WFlV-45" value="Время&lt;br&gt;День недели&lt;br&gt;Время дня" style="rounded=1;whiteSpace=wrap;html=1;align=center;fillColor=#fff2cc;strokeColor=#d6b656;" vertex="1" parent="1">
          <mxGeometry x="3840" y="80" width="80" height="80" as="geometry" />
        </mxCell>
        <mxCell id="qR7dvyqKIZMKu4I9WFlV-46" value="Базовая информация&lt;br&gt;Кастомные индикаторы" style="rounded=1;whiteSpace=wrap;html=1;fillColor=#dae8fc;strokeColor=#6c8ebf;" vertex="1" parent="1">
          <mxGeometry x="3920" y="80" width="280" height="80" as="geometry" />
        </mxCell>
        <mxCell id="qR7dvyqKIZMKu4I9WFlV-47" value="Финансовые индикаторы" style="rounded=1;whiteSpace=wrap;html=1;fillColor=#d5e8d4;strokeColor=#82b366;" vertex="1" parent="1">
          <mxGeometry x="4200" y="80" width="160" height="80" as="geometry" />
        </mxCell>
        <mxCell id="qR7dvyqKIZMKu4I9WFlV-48" value="Внутренний датасет" style="text;html=1;strokeColor=none;fillColor=none;align=center;verticalAlign=middle;whiteSpace=wrap;rounded=0;" vertex="1" parent="1">
          <mxGeometry x="3850" y="40" width="140" height="30" as="geometry" />
        </mxCell>
        <mxCell id="qR7dvyqKIZMKu4I9WFlV-49" value="" style="shape=link;html=1;rounded=0;" edge="1" parent="1">
          <mxGeometry width="100" relative="1" as="geometry">
            <mxPoint x="3920" y="200" as="sourcePoint" />
            <mxPoint x="3920" y="280" as="targetPoint" />
          </mxGeometry>
        </mxCell>
        <mxCell id="qR7dvyqKIZMKu4I9WFlV-50" value="1 Уровень" style="text;html=1;strokeColor=none;fillColor=none;align=center;verticalAlign=middle;whiteSpace=wrap;rounded=0;" vertex="1" parent="1">
          <mxGeometry x="3850" y="285" width="60" height="30" as="geometry" />
        </mxCell>
        <mxCell id="qR7dvyqKIZMKu4I9WFlV-51" value="Время&lt;br&gt;День недели&lt;br&gt;Время дня" style="rounded=1;whiteSpace=wrap;html=1;align=center;fillColor=#fff2cc;strokeColor=#d6b656;" vertex="1" parent="1">
          <mxGeometry x="3960" y="200" width="80" height="80" as="geometry" />
        </mxCell>
        <mxCell id="qR7dvyqKIZMKu4I9WFlV-52" value="Базовая информация&lt;br&gt;Кастомные индикаторы" style="rounded=1;whiteSpace=wrap;html=1;fillColor=#dae8fc;strokeColor=#6c8ebf;" vertex="1" parent="1">
          <mxGeometry x="4040" y="200" width="280" height="80" as="geometry" />
        </mxCell>
        <mxCell id="qR7dvyqKIZMKu4I9WFlV-53" value="" style="shape=link;html=1;rounded=0;" edge="1" parent="1">
          <mxGeometry width="100" relative="1" as="geometry">
            <mxPoint x="3920" y="190" as="sourcePoint" />
            <mxPoint x="3920" y="410" as="targetPoint" />
          </mxGeometry>
        </mxCell>
        <mxCell id="qR7dvyqKIZMKu4I9WFlV-54" value="" style="shape=flexArrow;endArrow=classic;html=1;rounded=0;" edge="1" parent="1">
          <mxGeometry width="50" height="50" relative="1" as="geometry">
            <mxPoint x="4330" y="240" as="sourcePoint" />
            <mxPoint x="4390" y="240" as="targetPoint" />
          </mxGeometry>
        </mxCell>
        <mxCell id="qR7dvyqKIZMKu4I9WFlV-55" value="Предсказание 1" style="rounded=1;whiteSpace=wrap;html=1;align=center;fillColor=#e1d5e7;strokeColor=#9673a6;" vertex="1" parent="1">
          <mxGeometry x="4400" y="200" width="120" height="80" as="geometry" />
        </mxCell>
        <mxCell id="qR7dvyqKIZMKu4I9WFlV-56" value="Время&lt;br&gt;День недели&lt;br&gt;Время дня" style="rounded=1;whiteSpace=wrap;html=1;align=center;fillColor=#fff2cc;strokeColor=#d6b656;" vertex="1" parent="1">
          <mxGeometry x="3960" y="320" width="80" height="80" as="geometry" />
        </mxCell>
        <mxCell id="qR7dvyqKIZMKu4I9WFlV-57" value="Финансовые индикаторы" style="rounded=1;whiteSpace=wrap;html=1;fillColor=#d5e8d4;strokeColor=#82b366;" vertex="1" parent="1">
          <mxGeometry x="4040" y="320" width="160" height="80" as="geometry" />
        </mxCell>
        <mxCell id="qR7dvyqKIZMKu4I9WFlV-58" value="" style="shape=flexArrow;endArrow=classic;html=1;rounded=0;" edge="1" parent="1">
          <mxGeometry width="50" height="50" relative="1" as="geometry">
            <mxPoint x="4330" y="360" as="sourcePoint" />
            <mxPoint x="4390" y="360" as="targetPoint" />
          </mxGeometry>
        </mxCell>
        <mxCell id="qR7dvyqKIZMKu4I9WFlV-59" value="Предсказание 2" style="rounded=1;whiteSpace=wrap;html=1;align=center;fillColor=#e1d5e7;strokeColor=#9673a6;" vertex="1" parent="1">
          <mxGeometry x="4400" y="320" width="120" height="80" as="geometry" />
        </mxCell>
        <mxCell id="qR7dvyqKIZMKu4I9WFlV-60" value="Время&lt;br&gt;День недели&lt;br&gt;Время дня" style="rounded=1;whiteSpace=wrap;html=1;align=center;fillColor=#fff2cc;strokeColor=#d6b656;" vertex="1" parent="1">
          <mxGeometry x="3840" y="440" width="80" height="80" as="geometry" />
        </mxCell>
        <mxCell id="qR7dvyqKIZMKu4I9WFlV-61" value="Базовая информация&lt;br&gt;Кастомные индикаторы" style="rounded=1;whiteSpace=wrap;html=1;fillColor=#dae8fc;strokeColor=#6c8ebf;" vertex="1" parent="1">
          <mxGeometry x="3920" y="440" width="280" height="80" as="geometry" />
        </mxCell>
        <mxCell id="qR7dvyqKIZMKu4I9WFlV-62" value="Финансовые индикаторы" style="rounded=1;whiteSpace=wrap;html=1;fillColor=#d5e8d4;strokeColor=#82b366;" vertex="1" parent="1">
          <mxGeometry x="4200" y="440" width="160" height="80" as="geometry" />
        </mxCell>
        <mxCell id="qR7dvyqKIZMKu4I9WFlV-63" value="Предсказание 1" style="rounded=1;whiteSpace=wrap;html=1;align=center;fillColor=#e1d5e7;strokeColor=#9673a6;" vertex="1" parent="1">
          <mxGeometry x="4360" y="440" width="120" height="80" as="geometry" />
        </mxCell>
        <mxCell id="qR7dvyqKIZMKu4I9WFlV-64" value="Предсказание 2" style="rounded=1;whiteSpace=wrap;html=1;align=center;fillColor=#e1d5e7;strokeColor=#9673a6;" vertex="1" parent="1">
          <mxGeometry x="4480" y="440" width="120" height="80" as="geometry" />
        </mxCell>
        <mxCell id="qR7dvyqKIZMKu4I9WFlV-65" value="" style="shape=link;html=1;rounded=0;" edge="1" parent="1">
          <mxGeometry width="100" relative="1" as="geometry">
            <mxPoint x="3920" y="560" as="sourcePoint" />
            <mxPoint x="3920" y="640" as="targetPoint" />
          </mxGeometry>
        </mxCell>
        <mxCell id="qR7dvyqKIZMKu4I9WFlV-66" value="2 Уровень" style="text;html=1;strokeColor=none;fillColor=none;align=center;verticalAlign=middle;whiteSpace=wrap;rounded=0;" vertex="1" parent="1">
          <mxGeometry x="3850" y="645" width="60" height="30" as="geometry" />
        </mxCell>
        <mxCell id="qR7dvyqKIZMKu4I9WFlV-67" value="" style="shape=link;html=1;rounded=0;" edge="1" parent="1">
          <mxGeometry width="100" relative="1" as="geometry">
            <mxPoint x="3920" y="550" as="sourcePoint" />
            <mxPoint x="3920" y="770" as="targetPoint" />
          </mxGeometry>
        </mxCell>
        <mxCell id="qR7dvyqKIZMKu4I9WFlV-68" value="" style="endArrow=none;dashed=1;html=1;dashPattern=1 3;strokeWidth=2;rounded=0;" edge="1" parent="1">
          <mxGeometry width="50" height="50" relative="1" as="geometry">
            <mxPoint x="3940" y="299.41" as="sourcePoint" />
            <mxPoint x="4540" y="299.41" as="targetPoint" />
          </mxGeometry>
        </mxCell>
        <mxCell id="qR7dvyqKIZMKu4I9WFlV-69" value="" style="endArrow=none;dashed=1;html=1;dashPattern=1 3;strokeWidth=2;rounded=0;" edge="1" parent="1">
          <mxGeometry width="50" height="50" relative="1" as="geometry">
            <mxPoint x="3940" y="660" as="sourcePoint" />
            <mxPoint x="4540" y="660" as="targetPoint" />
          </mxGeometry>
        </mxCell>
        <mxCell id="qR7dvyqKIZMKu4I9WFlV-70" value="Время&lt;br&gt;День недели&lt;br&gt;Время дня" style="rounded=1;whiteSpace=wrap;html=1;align=center;fillColor=#fff2cc;strokeColor=#d6b656;" vertex="1" parent="1">
          <mxGeometry x="3960" y="560" width="80" height="80" as="geometry" />
        </mxCell>
        <mxCell id="qR7dvyqKIZMKu4I9WFlV-71" value="Предсказание 1" style="rounded=1;whiteSpace=wrap;html=1;align=center;fillColor=#e1d5e7;strokeColor=#9673a6;" vertex="1" parent="1">
          <mxGeometry x="4040" y="560" width="120" height="80" as="geometry" />
        </mxCell>
        <mxCell id="qR7dvyqKIZMKu4I9WFlV-72" value="Предсказание 2" style="rounded=1;whiteSpace=wrap;html=1;align=center;fillColor=#e1d5e7;strokeColor=#9673a6;" vertex="1" parent="1">
          <mxGeometry x="4160" y="560" width="120" height="80" as="geometry" />
        </mxCell>
        <mxCell id="qR7dvyqKIZMKu4I9WFlV-73" value="Время&lt;br&gt;День недели&lt;br&gt;Время дня" style="rounded=1;whiteSpace=wrap;html=1;align=center;fillColor=#fff2cc;strokeColor=#d6b656;" vertex="1" parent="1">
          <mxGeometry x="3960" y="680" width="80" height="80" as="geometry" />
        </mxCell>
        <mxCell id="qR7dvyqKIZMKu4I9WFlV-74" value="Предсказание 1" style="rounded=1;whiteSpace=wrap;html=1;align=center;fillColor=#e1d5e7;strokeColor=#9673a6;" vertex="1" parent="1">
          <mxGeometry x="4040" y="680" width="120" height="80" as="geometry" />
        </mxCell>
        <mxCell id="qR7dvyqKIZMKu4I9WFlV-75" value="Предсказание 2" style="rounded=1;whiteSpace=wrap;html=1;align=center;fillColor=#e1d5e7;strokeColor=#9673a6;" vertex="1" parent="1">
          <mxGeometry x="4160" y="680" width="120" height="80" as="geometry" />
        </mxCell>
        <mxCell id="qR7dvyqKIZMKu4I9WFlV-76" value="" style="shape=flexArrow;endArrow=classic;html=1;rounded=0;" edge="1" parent="1">
          <mxGeometry width="50" height="50" relative="1" as="geometry">
            <mxPoint x="4330" y="600" as="sourcePoint" />
            <mxPoint x="4390" y="600" as="targetPoint" />
          </mxGeometry>
        </mxCell>
        <mxCell id="qR7dvyqKIZMKu4I9WFlV-77" value="" style="shape=flexArrow;endArrow=classic;html=1;rounded=0;" edge="1" parent="1">
          <mxGeometry width="50" height="50" relative="1" as="geometry">
            <mxPoint x="4330" y="720" as="sourcePoint" />
            <mxPoint x="4390" y="720" as="targetPoint" />
          </mxGeometry>
        </mxCell>
        <mxCell id="qR7dvyqKIZMKu4I9WFlV-78" value="Предсказание&amp;nbsp;&lt;br&gt;на повышение" style="rounded=1;whiteSpace=wrap;html=1;align=center;fillColor=#f8cecc;strokeColor=#b85450;" vertex="1" parent="1">
          <mxGeometry x="4400" y="560" width="120" height="80" as="geometry" />
        </mxCell>
        <mxCell id="qR7dvyqKIZMKu4I9WFlV-79" value="Предсказание&amp;nbsp;&lt;br&gt;на понижение" style="rounded=1;whiteSpace=wrap;html=1;align=center;fillColor=#f8cecc;strokeColor=#b85450;" vertex="1" parent="1">
          <mxGeometry x="4400" y="680" width="120" height="80" as="geometry" />
        </mxCell>
      </root>
    </mxGraphModel>
  </diagram>
</mxfile>
